HIERARCHY
ROOT hip
{
  OFFSET 0.0168452 103.724 2.51504
  CHANNELS 6 Xposition Yposition Zposition Zrotation Xrotation Yrotation
  JOINT abdomen
  {
    OFFSET 0 -1.186 -1.50178
    CHANNELS 6 Xposition Yposition Zposition Zrotation Xrotation Yrotation
    JOINT abdomen2
    {
      OFFSET 0 9.964 0.21338
      CHANNELS 6 Xposition Yposition Zposition Zrotation Xrotation Yrotation
      JOINT chest
      {
        OFFSET 0 13.134 -3.25729
        CHANNELS 6 Xposition Yposition Zposition Zrotation Xrotation Yrotation
        JOINT neck
        {
          OFFSET 0 21.686 -1.69049
          CHANNELS 6 Xposition Yposition Zposition Zrotation Xrotation Yrotation
          JOINT head
          {
            OFFSET 0 11.838 -0.12368
            CHANNELS 6 Xposition Yposition Zposition Zrotation Xrotation Yrotation
            End Site
            {
              OFFSET 0 6.717 2.38717
            }
          }
        }
        JOINT lCollar
        {
          OFFSET 1.70688 20.075 5.0056
          CHANNELS 6 Xposition Yposition Zposition Zrotation Xrotation Yrotation
          JOINT lShldr
          {
            OFFSET 13.6458 -0.047012 -4.84902
            CHANNELS 6 Xposition Yposition Zposition Zrotation Xrotation Yrotation
            JOINT lForeArm
            {
              OFFSET 28.3255 -0.975903 2.28883
              CHANNELS 6 Xposition Yposition Zposition Zrotation Xrotation Yrotation
              JOINT lHand
              {
                OFFSET 22.1583 -0.530035 10.8316
                CHANNELS 6 Xposition Yposition Zposition Zrotation Xrotation Yrotation
                JOINT lThumb1
                {
                  OFFSET 0.785995 0.111999 2.58168
                  CHANNELS 6 Xposition Yposition Zposition Zrotation Xrotation Yrotation
                  JOINT lThumb2
                  {
                    OFFSET 0.3601 -0.878005 4.2331
                    CHANNELS 6 Xposition Yposition Zposition Zrotation Xrotation Yrotation
                    End Site
                    {
                      OFFSET 1.81271 -1.21601 2.2227
                    }
                  }
                }
                JOINT lCarpal1
                {
                  OFFSET 0.9571 1.114 1.76948
                  CHANNELS 6 Xposition Yposition Zposition Zrotation Xrotation Yrotation
                  JOINT lIndex1
                  {
                    OFFSET 4.1246 0.487 4.1451
                    CHANNELS 6 Xposition Yposition Zposition Zrotation Xrotation Yrotation
                    JOINT lIndex2
                    {
                      OFFSET 3.40521 -1.45401 2.7682
                      CHANNELS 6 Xposition Yposition Zposition Zrotation Xrotation Yrotation
                      End Site
                      {
                        OFFSET 1.4531 -1.795 1.2713
                      }
                    }
                  }
                  JOINT lMid1
                  {
                    OFFSET 5.6954 0.209991 2.1184
                    CHANNELS 6 Xposition Yposition Zposition Zrotation Xrotation Yrotation
                    JOINT lMid2
                    {
                      OFFSET 3.9766 -1.53999 2.3863
                      CHANNELS 6 Xposition Yposition Zposition Zrotation Xrotation Yrotation
                      End Site
                      {
                        OFFSET 1.4042 -1.926 1.125
                      }
                    }
                  }
                }
                JOINT lCarpal2
                {
                  OFFSET 2.09559 0.65999 -0.38939
                  CHANNELS 6 Xposition Yposition Zposition Zrotation Xrotation Yrotation
                  JOINT lRing1
                  {
                    OFFSET 5.0395 -0.089997 2.49707
                    CHANNELS 6 Xposition Yposition Zposition Zrotation Xrotation Yrotation
                    JOINT lRing2
                    {
                      OFFSET 3.7921 -1.552 1.4806
                      CHANNELS 6 Xposition Yposition Zposition Zrotation Xrotation Yrotation
                      End Site
                      {
                        OFFSET 1.4655 -1.808 0.9609
                      }
                    }
                  }
                  JOINT lPinky1
                  {
                    OFFSET 4.9141 -1.269 0.35915
                    CHANNELS 6 Xposition Yposition Zposition Zrotation Xrotation Yrotation
                    JOINT lPinky2
                    {
                      OFFSET 3.1477 -1.685 0.84623
                      CHANNELS 6 Xposition Yposition Zposition Zrotation Xrotation Yrotation
                      End Site
                      {
                        OFFSET 0.805505 -1.58499 0.79549
                      }
                    }
                  }
                }
              }
            }
          }
        }
        JOINT rCollar
        {
          OFFSET -1.70688 20.075 5.0056
          CHANNELS 6 Xposition Yposition Zposition Zrotation Xrotation Yrotation
          JOINT rShldr
          {
            OFFSET -13.6458 -0.047012 -4.84902
            CHANNELS 6 Xposition Yposition Zposition Zrotation Xrotation Yrotation
            JOINT rForeArm
            {
              OFFSET -28.3255 -0.975903 2.28883
              CHANNELS 6 Xposition Yposition Zposition Zrotation Xrotation Yrotation
              JOINT rHand
              {
                OFFSET -22.1583 -0.530036 10.8316
                CHANNELS 6 Xposition Yposition Zposition Zrotation Xrotation Yrotation
                JOINT rThumb1
                {
                  OFFSET -0.785995 0.111999 2.58168
                  CHANNELS 6 Xposition Yposition Zposition Zrotation Xrotation Yrotation
                  JOINT rThumb2
                  {
                    OFFSET -0.3601 -0.878005 4.2331
                    CHANNELS 6 Xposition Yposition Zposition Zrotation Xrotation Yrotation
                    End Site
                    {
                      OFFSET -1.81271 -1.21601 2.2227
                    }
                  }
                }
                JOINT rCarpal1
                {
                  OFFSET -0.9571 1.114 1.76948
                  CHANNELS 6 Xposition Yposition Zposition Zrotation Xrotation Yrotation
                  JOINT rIndex1
                  {
                    OFFSET -4.1246 0.487 4.1451
                    CHANNELS 6 Xposition Yposition Zposition Zrotation Xrotation Yrotation
                    JOINT rIndex2
                    {
                      OFFSET -3.40521 -1.45401 2.7682
                      CHANNELS 6 Xposition Yposition Zposition Zrotation Xrotation Yrotation
                      End Site
                      {
                        OFFSET -1.4531 -1.795 1.2713
                      }
                    }
                  }
                  JOINT rMid1
                  {
                    OFFSET -5.6954 0.209991 2.1184
                    CHANNELS 6 Xposition Yposition Zposition Zrotation Xrotation Yrotation
                    JOINT rMid2
                    {
                      OFFSET -3.9766 -1.53999 2.3863
                      CHANNELS 6 Xposition Yposition Zposition Zrotation Xrotation Yrotation
                      End Site
                      {
                        OFFSET -1.4042 -1.926 1.125
                      }
                    }
                  }
                }
                JOINT rCarpal2
                {
                  OFFSET -2.09559 0.65999 -0.38939
                  CHANNELS 6 Xposition Yposition Zposition Zrotation Xrotation Yrotation
                  JOINT rRing1
                  {
                    OFFSET -5.0395 -0.089997 2.49707
                    CHANNELS 6 Xposition Yposition Zposition Zrotation Xrotation Yrotation
                    JOINT rRing2
                    {
                      OFFSET -3.7921 -1.552 1.4806
                      CHANNELS 6 Xposition Yposition Zposition Zrotation Xrotation Yrotation
                      End Site
                      {
                        OFFSET -1.4655 -1.808 0.9609
                      }
                    }
                  }
                  JOINT rPinky1
                  {
                    OFFSET -4.9141 -1.269 0.35915
                    CHANNELS 6 Xposition Yposition Zposition Zrotation Xrotation Yrotation
                    JOINT rPinky2
                    {
                      OFFSET -3.1477 -1.685 0.84623
                      CHANNELS 6 Xposition Yposition Zposition Zrotation Xrotation Yrotation
                      End Site
                      {
                        OFFSET -0.805505 -1.58499 0.79549
                      }
                    }
                  }
                }
              }
            }
          }
        }
      }
    }
  }
  JOINT lThigh
  {
    OFFSET 8.367 -8.2066 0.59823
    CHANNELS 6 Xposition Yposition Zposition Zrotation Xrotation Yrotation
    JOINT lShin
    {
      OFFSET 2.19232 -43.463 -0.493181
      CHANNELS 6 Xposition Yposition Zposition Zrotation Xrotation Yrotation
      JOINT lFoot
      {
        OFFSET 0.733257 -45.8593 -2.64513
        CHANNELS 6 Xposition Yposition Zposition Zrotation Xrotation Yrotation
        End Site
        {
          OFFSET 2.6618 -4.26993 12.3931
        }
      }
    }
  }
  JOINT rThigh
  {
    OFFSET -8.367 -8.2066 0.59823
    CHANNELS 6 Xposition Yposition Zposition Zrotation Xrotation Yrotation
    JOINT rShin
    {
      OFFSET -2.19233 -43.463 -0.493108
      CHANNELS 6 Xposition Yposition Zposition Zrotation Xrotation Yrotation
      JOINT rFoot
      {
        OFFSET -0.733256 -45.8593 -2.64514
        CHANNELS 6 Xposition Yposition Zposition Zrotation Xrotation Yrotation
        End Site
        {
          OFFSET -2.6618 -4.26993 12.3931
        }
      }
    }
  }
}
MOTION
Frames:	4
Frame Time:	0.0333333
0 103.724 2.51504 0 0 -0 0 -1.186 -1.50178 0 0 -0 0 9.964 0.21338 0 0 -0 0 13.134 -3.25729 0 0 -0 0 21.686 -1.69049 0 0 -0 0 11.838 -0.12368 0 0 -0 1.70688 20.075 5.0056 0 0 -0 13.6458 -0.047012 -4.84902 0.00127061 0.00076837 5.45741 28.3255 -0.975903 2.28883 -0.0012455 -0.000652875 21.1674 22.1583 -0.530035 10.8316 -8.30021e-005 4.16094e-005 0.000111497 0.785995 0.111999 2.58168 -1.44635e-027 0 -0 0.3601 -0.878005 4.2331 1.44635e-027 0 -3.18055e-015 0.9571 1.114 1.76948 -1.44635e-027 0 -0 4.1246 0.487 4.1451 1.44635e-027 0 -3.18055e-015 3.40521 -1.45401 2.7682 2.8927e-027 2.8927e-027 -0 5.6954 0.209991 2.1184 1.44635e-027 0 -3.18055e-015 3.9766 -1.53999 2.3863 2.8927e-027 2.8927e-027 -0 2.09559 0.65999 -0.38939 -1.44635e-027 0 -0 5.0395 -0.089997 2.49707 1.44635e-027 0 -3.18055e-015 3.7921 -1.552 1.4806 2.8927e-027 2.8927e-027 -0 4.9141 -1.269 0.35915 1.44635e-027 0 -3.18055e-015 3.1477 -1.685 0.84623 2.8927e-027 2.8927e-027 -0 -1.70688 20.075 5.0056 0 0 -0 -13.6458 -0.047012 -4.84902 -0.00127695 0.000812872 -6.04358 -28.3255 -0.975903 2.28883 0.00127231 -0.000687016 -20.3599 -22.1583 -0.530036 10.8316 7.3373e-005 4.12064e-005 -0.000103872 -0.785995 0.111999 2.58168 -4.33905e-027 -2.8927e-027 -0 -0.3601 -0.878005 4.2331 -1.15708e-026 -1.44635e-027 -0 -0.9571 1.114 1.76948 -4.33905e-027 -2.8927e-027 -0 -4.1246 0.487 4.1451 -1.15708e-026 -1.44635e-027 -0 -3.40521 -1.45401 2.7682 1.2294e-026 -1.44635e-027 -0 -5.6954 0.209991 2.1184 -1.15708e-026 -1.44635e-027 -0 -3.9766 -1.53999 2.3863 1.2294e-026 -1.44635e-027 -0 -2.09559 0.65999 -0.38939 -4.33905e-027 -2.8927e-027 -0 -5.0395 -0.089997 2.49707 -1.15708e-026 -1.44635e-027 -0 -3.7921 -1.552 1.4806 1.2294e-026 -1.44635e-027 -0 -4.9141 -1.269 0.35915 -1.15708e-026 -1.44635e-027 -0 -3.1477 -1.685 0.84623 1.2294e-026 -1.44635e-027 -0 8.367 -8.2066 0.59823 -4.69663 -0.839373 0.129466 2.19232 -43.463 -0.493181 0.00525462 1.23001 0.0980494 0.733257 -45.8593 -2.64513 4.69269 -0.407952 -0.194854 -8.367 -8.2066 0.59823 4.69662 -0.839048 -0.129486 -2.19233 -43.463 -0.493108 -0.00521441 1.22918 -0.098037 -0.733256 -45.8593 -2.64514 -4.69271 -0.407451 0.194902 
0.821787 95.0625 2.40943 -5.28 -1.9 4.16 1.77636e-015 -1.186 -1.50178 -2.18448 11.7037 -2.68686 0 9.964 0.21338 -3.91994 23.4919 -5.07014 0 13.134 -3.25729 -3.91993 23.4918 -5.07013 -7.10543e-015 21.686 -1.69049 9.57013 -12.0704 0.000187134 7.10543e-015 11.838 -0.12368 -8.92999 -40.77 -2.26999 1.70688 20.075 5.0056 12.4401 -0.000433682 -3.71978 13.6458 -0.047012 -4.84902 -96.018 -10.0909 -76.0251 28.3255 -0.975903 2.28883 8.2502 56.6115 -73.169 22.1583 -0.530035 10.8316 0.634532 -0.295637 1.28287 0.785995 0.111999 2.58168 9.54166e-015 -4.77083e-015 7.95139e-016 0.3601 -0.878005 4.2331 1.32417e-031 -3.18055e-015 2.38542e-015 0.9571 1.114 1.76948 9.54166e-015 -4.77083e-015 7.95139e-016 4.1246 0.487 4.1451 1.32417e-031 -3.18055e-015 2.38542e-015 3.40521 -1.45401 2.7682 -3.18055e-015 0 2.38542e-015 5.6954 0.209991 2.1184 1.32417e-031 -3.18055e-015 2.38542e-015 3.9766 -1.53999 2.3863 -3.18055e-015 0 2.38542e-015 2.09559 0.65999 -0.38939 9.54166e-015 -4.77083e-015 7.95139e-016 5.0395 -0.089997 2.49707 1.32417e-031 -3.18055e-015 2.38542e-015 3.7921 -1.552 1.4806 -3.18055e-015 0 2.38542e-015 4.9141 -1.269 0.35915 1.32417e-031 -3.18055e-015 2.38542e-015 3.1477 -1.685 0.84623 -3.18055e-015 0 2.38542e-015 -1.70688 20.075 5.0056 -4.2199 -0.000473276 11.5701 -13.6458 -0.047012 -4.84902 48.6708 17.7855 -29.6948 -28.3255 -0.975903 2.28883 -11.4671 48.5353 66.2901 -22.1583 -0.530036 10.8316 -1.33297 -0.617244 -1.76423 -0.785995 0.111999 2.58168 9.54166e-015 1.59028e-015 1.59028e-015 -0.3601 -0.878005 4.2331 1.27222e-014 -1.59028e-015 -0 -0.9571 1.114 1.76948 9.54166e-015 1.59028e-015 1.59028e-015 -4.1246 0.487 4.1451 1.27222e-014 -1.59028e-015 -0 -3.40521 -1.45401 2.7682 1.27222e-014 0 -1.59028e-015 -5.6954 0.209991 2.1184 1.27222e-014 -1.59028e-015 -0 -3.9766 -1.53999 2.3863 1.27222e-014 0 -1.59028e-015 -2.09559 0.65999 -0.38939 9.54166e-015 1.59028e-015 1.59028e-015 -5.0395 -0.089997 2.49707 1.27222e-014 -1.59028e-015 -0 -3.7921 -1.552 1.4806 1.27222e-014 0 -1.59028e-015 -4.9141 -1.269 0.35915 1.27222e-014 -1.59028e-015 -0 -3.1477 -1.685 0.84623 1.27222e-014 0 -1.59028e-015 8.367 -8.2066 0.59823 3.61885 -20.26 3.54184 2.19232 -43.463 -0.493181 -1.37416 50.219 9.19529 0.733257 -45.8593 -2.64513 6.21218 -31.3294 1.80724 -8.367 -8.2066 0.59823 -6.42228 -30.9975 -5.99762 -2.19233 -43.463 -0.493108 24.9568 54.2044 -28.8567 -0.733256 -45.8593 -2.64514 -5.20021 -14.9816 -1.3682 
0.401909 95.1105 5.03828 -4.97 -0.0100022 6.28 0 -1.186 -1.50178 -1.7714 11.3498 -2.67946 0 9.964 0.21338 -3.08102 22.7671 -5.14886 -3.55271e-015 13.134 -3.25729 -3.08102 22.7671 -5.14887 0 21.686 -1.69049 9.35011 -12.4004 0.000171774 -3.55271e-015 11.838 -0.12368 -9.07 -40.74 -2.48 1.70688 20.075 5.0056 11.8901 -0.00038228 -6.41981 13.6458 -0.047012 -4.84902 -93.6826 -16.0633 -69.4028 28.3255 -0.975903 2.28883 8.81996 58.3445 -73.6456 22.1583 -0.530035 10.8316 0.607645 -0.282199 1.72057 0.785995 0.111999 2.58168 9.54166e-015 2.38542e-015 1.19271e-015 0.3601 -0.878005 4.2331 6.36111e-015 1.98785e-015 -7.95139e-016 0.9571 1.114 1.76948 9.54166e-015 2.38542e-015 1.19271e-015 4.1246 0.487 4.1451 6.36111e-015 1.98785e-015 -7.95139e-016 3.40521 -1.45401 2.7682 6.36111e-015 2.78299e-015 -3.97569e-016 5.6954 0.209991 2.1184 6.36111e-015 1.98785e-015 -7.95139e-016 3.9766 -1.53999 2.3863 6.36111e-015 2.78299e-015 -3.97569e-016 2.09559 0.65999 -0.38939 9.54166e-015 2.38542e-015 1.19271e-015 5.0395 -0.089997 2.49707 6.36111e-015 1.98785e-015 -7.95139e-016 3.7921 -1.552 1.4806 6.36111e-015 2.78299e-015 -3.97569e-016 4.9141 -1.269 0.35915 6.36111e-015 1.98785e-015 -7.95139e-016 3.1477 -1.685 0.84623 6.36111e-015 2.78299e-015 -3.97569e-016 -1.70688 20.075 5.0056 -2.38993 -0.000393249 12.0101 -13.6458 -0.047012 -4.84902 45.8056 17.7158 -28.2034 -28.3255 -0.975903 2.28883 -11.329 48.9501 67.4162 -22.1583 -0.530036 10.8316 -1.33316 -0.617224 -1.66808 -0.785995 0.111999 2.58168 -3.18055e-015 2.38542e-015 -0 -0.3601 -0.878005 4.2331 -3.18055e-015 3.97569e-015 1.59028e-015 -0.9571 1.114 1.76948 -3.18055e-015 2.38542e-015 -0 -4.1246 0.487 4.1451 -3.18055e-015 3.97569e-015 1.59028e-015 -3.40521 -1.45401 2.7682 1.10348e-032 -7.95139e-016 7.95139e-016 -5.6954 0.209991 2.1184 -3.18055e-015 3.97569e-015 1.59028e-015 -3.9766 -1.53999 2.3863 1.10348e-032 -7.95139e-016 7.95139e-016 -2.09559 0.65999 -0.38939 -3.18055e-015 2.38542e-015 -0 -5.0395 -0.089997 2.49707 -3.18055e-015 3.97569e-015 1.59028e-015 -3.7921 -1.552 1.4806 1.10348e-032 -7.95139e-016 7.95139e-016 -4.9141 -1.269 0.35915 -3.18055e-015 3.97569e-015 1.59028e-015 -3.1477 -1.685 0.84623 1.10348e-032 -7.95139e-016 7.95139e-016 8.367 -8.2066 0.59823 3.45736 -20.1953 3.49618 2.19232 -43.463 -0.493181 -0.478915 49.715 7.20326 0.733257 -45.8593 -2.64513 6.44011 -32.6243 1.91123 -8.367 -8.2066 0.59823 -7.67368 -33.5083 -6.3242 -2.19233 -43.463 -0.493108 17.4403 41.9922 -23.1067 -0.733256 -45.8593 -2.64514 -5.09772 -16.168 -1.11233 
0.0252279 95.0013 7.68164 -4.31 1.12 7.75 -8.88178e-016 -1.186 -1.50178 -1.42255 11.2001 -2.5034 1.77636e-015 9.964 0.21338 -2.40495 22.45 -4.86056 0 13.134 -3.25729 -2.40496 22.4501 -4.86057 -3.55271e-015 21.686 -1.69049 8.8401 -12.8604 0.000172083 -3.55271e-015 11.838 -0.12368 -9.34001 -40.69 -2.9 1.70688 20.075 5.0056 10.8101 -0.000379733 -9.20984 13.6458 -0.047012 -4.84902 -89.2772 -22.0823 -61.0645 28.3255 -0.975903 2.28883 9.30714 59.7014 -74.0609 22.1583 -0.530035 10.8316 0.589781 -0.2732 1.95302 0.785995 0.111999 2.58168 3.18055e-015 3.97569e-016 -9.93923e-016 0.3601 -0.878005 4.2331 1.32417e-031 -3.18055e-015 2.38542e-015 0.9571 1.114 1.76948 3.18055e-015 3.97569e-016 -9.93923e-016 4.1246 0.487 4.1451 1.32417e-031 -3.18055e-015 2.38542e-015 3.40521 -1.45401 2.7682 0 0 -1.59028e-015 5.6954 0.209991 2.1184 1.32417e-031 -3.18055e-015 2.38542e-015 3.9766 -1.53999 2.3863 0 0 -1.59028e-015 2.09559 0.65999 -0.38939 3.18055e-015 3.97569e-016 -9.93923e-016 5.0395 -0.089997 2.49707 1.32417e-031 -3.18055e-015 2.38542e-015 3.7921 -1.552 1.4806 0 0 -1.59028e-015 4.9141 -1.269 0.35915 1.32417e-031 -3.18055e-015 2.38542e-015 3.1477 -1.685 0.84623 0 0 -1.59028e-015 -1.70688 20.075 5.0056 0.130059 -0.00039361 11.7601 -13.6458 -0.047012 -4.84902 41.9559 15.6469 -25.042 -28.3255 -0.975903 2.28883 -11.2732 50.712 67.3738 -22.1583 -0.530036 10.8316 -1.36009 -0.630613 -1.72685 -0.785995 0.111999 2.58168 3.18055e-015 -1.59028e-015 3.18055e-015 -0.3601 -0.878005 4.2331 -3.18055e-015 2.38542e-015 3.97569e-015 -0.9571 1.114 1.76948 3.18055e-015 -1.59028e-015 3.18055e-015 -4.1246 0.487 4.1451 -3.18055e-015 2.38542e-015 3.97569e-015 -3.40521 -1.45401 2.7682 3.18055e-015 6.36111e-015 3.18055e-015 -5.6954 0.209991 2.1184 -3.18055e-015 2.38542e-015 3.97569e-015 -3.9766 -1.53999 2.3863 3.18055e-015 6.36111e-015 3.18055e-015 -2.09559 0.65999 -0.38939 3.18055e-015 -1.59028e-015 3.18055e-015 -5.0395 -0.089997 2.49707 -3.18055e-015 2.38542e-015 3.97569e-015 -3.7921 -1.552 1.4806 3.18055e-015 6.36111e-015 3.18055e-015 -4.9141 -1.269 0.35915 -3.18055e-015 2.38542e-015 3.97569e-015 -3.1477 -1.685 0.84623 3.18055e-015 6.36111e-015 3.18055e-015 8.367 -8.2066 0.59823 2.9747 -19.2883 3.3299 2.19232 -43.463 -0.493181 0.128984 49.4291 6.1568 0.733257 -45.8593 -2.64513 6.7236 -34.0945 2.04467 -8.367 -8.2066 0.59823 -8.51421 -34.1228 -6.32917 -2.19233 -43.463 -0.493108 10.8017 28.5847 -19.5928 -0.733256 -45.8593 -2.64514 -5.01662 -17.5576 -0.857984 
